<svg id="bbb04c74-5d16-4a73-b046-3a74bc5ebfd5" data-name="Layer 2" xmlns="http://www.w3.org/2000/svg" viewBox="0 0 610.05 640.59"><line y1="360.69" y2="359.94" style="fill:#7542f5"/><line y1="461.88" y2="461.14" style="fill:#333"/><line y1="0.19" style="fill:#333"/><line x1="87.12" y1="411.43" x2="87.12" y2="410.4" style="fill:#333"/><line x1="609.84" y1="461.57" x2="609.84" y2="459.65" style="fill:#333"/><line x1="609.84" y1="0.31" x2="609.84" y2="0.19" style="fill:#333"/><line x1="609.84" y1="360.37" x2="609.84" y2="358.46" style="fill:#333"/><line x1="609.84" y1="461.57" x2="608.22" y2="460.61" style="fill:#333"/><line x1="522.72" y1="410.09" x2="522.6" y2="410.02" style="fill:#333"/><line x1="0.33" y1="0.19" style="fill:#333"/><line x1="87.12" y1="410.4" x2="86.25" y2="410.91" style="fill:#333"/><line x1="0.63" y1="461.51" y2="461.88" style="fill:#333"/><polygon points="609.84 358.46 608.22 359.42 609.84 360.37 609.84 459.65 608.22 460.61 522.72 410.09 522.72 409.94 522.6 410.02 334.94 299.12 420.56 248.52 522.72 308.89 522.72 152.99 390.81 230.94 305.19 281.54 249.32 248.52 219.57 230.94 87.12 152.67 87.12 228.41 155.48 268.81 185.23 286.39 241.1 319.41 270.85 336.99 458.52 447.88 522.72 485.82 544.14 498.48 522.72 511.14 458.52 549.08 389.28 589.99 303.67 640.59 303.66 640.59 218.04 589.99 87.12 512.62 30.38 479.09 0.63 461.51 0 461.14 0 360.69 0.63 360.32 30.38 377.9 86.25 410.91 87.12 411.43 116 428.5 116.01 428.5 303.66 539.39 372.9 498.48 185.24 387.58 155.48 370 99.62 336.99 87.12 329.6 69.87 319.41 69.86 319.41 0 278.12 0 0.19 0.33 0.19 87.12 51.48 305.19 180.34 522.72 51.79 609.84 0.31 609.84 358.46" style="fill:#333"/><line x1="610.05" y1="0.19" x2="609.84" y2="0.31" style="fill:#333"/><line x1="0.63" y1="360.32" y2="359.94" style="fill:#333"/><line x1="610.05" y1="0.19" x2="609.84" y2="0.19" style="fill:#333"/></svg>
